<svg version="1.2" xmlns="http://www.w3.org/2000/svg" viewBox="0 0 1000 1000" width="1000" height="1000"><style>.a{fill:#fff}</style><path class="a" d="m833 361.3c-2.4-1.6-4-4.3-4.1-7.2-0.2-5.4 3.7-9.4 9.1-9.4h51.5c3.8 0.1 7.2 2.3 8.7 5.7 1.6 3.3 1.5 7.3-0.3 10.5-10.4 18.2-22.1 35.3-32.9 53.3-3.1 5.2-0.2 12 5.8 13.1 26.3 4.8 52.8 8.8 79.2 13.4 3.6 0.6 6.7 3.2 8 6.4 1.3 3.2 1.1 6.9-0.4 9.9-32 64.2-64.1 128.3-96.1 192.5-1.9 3.8-5.6 6.3-9.7 6.3-3 0-5.8-1.4-7.6-3.8-3-4-2.2-9.6 1.7-12.6 22.8-17.1 45.5-34.3 68.3-51.4 1.7-1.3 2-3.8 1-5.7-1-2-3.3-3.1-5.5-2.8-25.1 3.2-50.3 5.4-75.5 7-10.4 0.6-20.9 0.9-31.3 1-3.6 0-6.8-2.6-7.8-6.1-1-3.5 0.5-7.3 3.6-9.1 17.6-10.1 35.5-19.9 53.3-29.6 1.8-1 2.2-3.4 1-5.3-1.2-2-3.6-3.1-5.9-2.7-21.3 3.9-42.7 6.8-64.1 9.2-11.4 1.3-22.9 2-34.4 2.4-3.6 0.1-6.8-2.4-7.7-5.9-0.9-3.5 0.8-7.3 4.1-9 19-9.5 38.3-18.4 57.4-27.5 1.5-0.7 2-2.6 1.3-4.1-0.7-1.5-2.5-2.4-4.2-2.1-17.8 3.5-35.7 6.1-53.6 8.3-10.3 1.3-20.6 2-30.9 2.5-3.6 0.2-6.9-2.3-7.8-5.8-0.9-3.5 0.7-7.3 3.9-9.1 17.8-9.8 35.8-19.1 53.7-28.5 1.3-0.7 1.8-2.3 1.1-3.7-0.7-1.4-2.3-2.2-3.8-1.9-15.3 3-30.6 5.4-46 7.4-9.9 1.3-19.8 2-29.8 2.5-3.6 0.2-6.8-2.2-7.8-5.7-0.9-3.5 0.7-7.2 3.8-9 17.2-9.6 34.6-18.7 51.9-27.8 1.1-0.6 1.5-1.9 1-3.1-0.5-1.2-1.8-1.9-3.1-1.7-12.8 2.2-25.6 3.9-38.5 5.2-9.6 1-19.2 1.5-28.9 1.8-3.5 0.1-6.7-2.3-7.6-5.7-0.9-3.4 0.6-7.1 3.7-8.9 16.5-9.4 33.2-18.2 49.8-27.2-13-9.5-26.3-18.5-39.4-27.9-10.6-7.6-21.1-15.3-31.7-22.9-4-2.9-8.8-3.4-13.3-1.6-4.5 1.8-8 5.6-9.4 10.3-6.5 22.1-12.6 44.4-18.9 66.6-1.1 3.8-4.6 6.6-8.7 6.8-27.3 1.1-54.5 2.2-81.8 3.3-4.8 0.2-9.1-2.9-10.5-7.5-11.8-38.9-23.5-77.8-35.3-116.7-1.1-3.5-4.1-6-7.8-6.4-22.6-2.5-45.1-5.1-67.7-7.6-3.8-0.4-7.1 2-8.3 5.7-1.2 3.6 0.1 7.6 3.5 9.4 20.3 10.7 40.8 20.9 61.2 31.2 2 1 2.5 3.5 1.2 5.5-1.3 2-3.8 2.6-5.8 1.5-22-12.2-44.1-24.3-66.1-36.5-4-2.2-7-5.8-8.1-10.1-1.1-4.2 0-8.7 2.8-12.1 29-35.1 58-70.2 87-105.3 1.7-2.1 4.2-3.3 6.9-3.4 2.7-0.1 5.3 1 7.2 2.9 44.3 42.1 88.5 84.2 132.8 126.3zm-326.6 411.3c-2.4 1.6-5.3 2-8.1 1.2-2.8-0.8-5-3.1-6-6-8.1-23-16.1-46.1-24.2-69.1-1.3-3.6-4.8-6.1-8.7-6-29-0.5-58.1-1-87.1-1.5-4.2 0-7.8 2.8-9.1 6.9-1.3 4 0.6 8.5 4.5 10.2 21.1 9.2 42.4 17.8 63.6 26.5 2.1 0.9 2.9 3.3 2 5.5-0.9 2.2-3.3 3.4-5.6 2.9-25.5-5.7-51-11.5-76.5-17.2-10.9-2.4-21.9-4.8-32.8-7.3-3.8-0.9-7-3.8-8-7.6-1-3.8 0.6-7.8 3.8-9.8 18.6-11.6 37.4-22.7 56.1-34 1.9-1.2 2.4-3.7 1.2-5.6-1.2-1.9-3.7-2.6-5.7-1.6-21.9 10.8-44 21.3-66 31.8-4.2 2-8-0.1-9.5-4.2-1.5-4.1 0.7-8.4 4.8-10 23.3-9.1 46.7-17.9 70-26.6 2-0.7 2.8-3 2.1-5-0.7-2-2.9-3.2-5-2.7-23.7 5.7-47.5 10.9-71.3 15.6-10.1 2-20.2 3.8-30.3 5.4-3.8 0.6-7.2-1.8-8.6-5.3-1.4-3.5 0-7.5 3.2-9.6 18.3-12.3 36.8-24.2 55.3-36.2 1.8-1.2 2.3-3.6 1.2-5.5-1.1-1.9-3.5-2.7-5.6-1.8-21.5 9.4-43.2 18.4-64.8 27.4-3.9 1.6-8-0.5-9.6-4.3-1.7-3.8 0.2-8.2 4.1-10 22.4-10.3 44.9-20.2 67.4-30 1.9-0.9 2.6-3.1 1.7-5-0.8-1.9-2.9-3-5-2.5-21.1 5-42.3 9.4-63.5 13.5-9.6 1.8-19.3 3.4-28.9 4.8-3.8 0.5-7.3-1.7-8.8-5.1-1.5-3.4-0.1-7.4 3.1-9.6 17.6-12.4 35.5-24.4 53.3-36.5 1.5-1 2-3.4 1.1-5.2s-3.2-2.8-5-2.1c-17.7 7-35.6 13.5-53.4 20-9.9 3.6-19.8 6.8-29.8 9.9-3.8 1.2-7.8-0.8-9.5-4.4-1.7-3.6 0-7.8 3.5-9.8 19.9-11.4 40-22.3 60-33.3 1.6-0.9 2.1-2.9 1.2-4.6-0.9-1.7-2.9-2.5-4.7-2-15.1 4.5-30.2 8.5-45.3 12.3-9.5 2.4-19.1 4.5-28.6 6.5-3.8 0.8-7.5-1.2-9-4.7-1.5-3.5 0.1-7.6 3.4-9.8 18.5-12 37.2-23.7 55.8-35.4-45-31.2-90-62.4-135-93.6-3-2.1-5.1-5.3-5.6-8.8-0.5-3.5 1.1-6.9 4.1-8.9 38.3-25.3 76.5-50.6 114.8-75.9 2.8-1.8 6.2-2.3 9.4-1.2 3.2 1.1 5.6 3.9 6.6 7.2 21.4 69.4 42.8 138.8 64.2 208.2z"/></svg>